<?xml version="1.0" encoding="utf-8"?>
<svg xmlns="http://www.w3.org/2000/svg" viewBox="37.7122 31.3312 100 100" width="100px" height="100px"><defs><style>
      .cls-1 {
        fill: #080905;
      }

      .cls-2 {
        fill: #0a0c06;
      }

      .cls-3 {
        fill: #c4ff61;
      }

      .cls-4 {
        fill: #0e1109;
      }

      .cls-5 {
        fill: #090b05;
      }

      .cls-6 {
        fill: #060704;
      }

      .cls-7 {
        fill: #050603;
      }

      .cls-8 {
        fill: #13170c;
      }

      .cls-9 {
        fill: #151a0d;
      }

      .cls-10 {
        fill: #090b06;
      }
    </style></defs><g transform="matrix(1, 0, 0, 1, -231.287841796875, -120.66878509521484)" id="object-2"><rect class="cls-3" x="269" width="100" height="100" style="" y="152" id="object-0"/><g transform="matrix(1, 0, 0, 1, -0.427994, 2.049995)" id="object-1"><g><g transform="matrix(1, 0, 0, 1, 0.014999, 1.296002)"><circle class="cls-2" cx="308.94" cy="169.87" r="4.4"/><circle class="cls-5" cx="288.88" cy="169.87" r="4.4"/><circle class="cls-5" cx="329.06" cy="169.85" r="4.41"/><circle class="cls-10" cx="349.11" cy="169.87" r="4.39"/></g><g><circle class="cls-8" cx="308.94" cy="158.69" r="2.18"/><circle class="cls-8" cx="329.03" cy="158.69" r="2.17"/></g><g transform="matrix(1, 0, 0, 1, 0.417999, -0.118998)"><circle class="cls-6" cx="307.86" cy="210.817" r="7.8"/><circle class="cls-2" cx="288.87" cy="210.817" r="4.4"/><circle class="cls-8" cx="277.72" cy="210.817" r="2.18"/><circle class="cls-5" cx="349.14" cy="210.817" r="4.4"/><circle class="cls-8" cx="360.3" cy="210.817" r="2.18"/><circle class="cls-6" cx="329.837" cy="210.817" r="7.8" style="stroke-width: 1;"/></g><g><circle class="cls-4" cx="308.94" cy="241.22" r="2.16"/><circle class="cls-4" cx="329.05" cy="241.23" r="2.16"/></g><g transform="matrix(1, 0, 0, 1, -0.417999, -0.592002)"><circle class="cls-6" cx="308.696" cy="189.824" r="7.8" style="stroke-width: 1;"/><circle class="cls-2" cx="289.706" cy="189.824" r="4.4" style="stroke-width: 1;"/><circle class="cls-8" cx="278.556" cy="189.824" r="2.18" style="stroke-width: 1;"/><circle class="cls-5" cx="349.976" cy="189.824" r="4.4" style="stroke-width: 1;"/><circle class="cls-8" cx="361.136" cy="189.824" r="2.18" style="stroke-width: 1;"/><circle class="cls-6" cx="330.673" cy="189.824" r="7.8" style="stroke-width: 1;"/></g><g transform="matrix(1, 0, 0, 1, 0.014999, 58.924)"><circle class="cls-2" cx="308.94" cy="169.87" r="4.4"/><circle class="cls-5" cx="288.88" cy="169.87" r="4.4"/><circle class="cls-5" cx="329.06" cy="169.85" r="4.41"/><circle class="cls-10" cx="349.11" cy="169.87" r="4.39"/></g></g></g></g></svg>